<?xml version="1.0" encoding="UTF-8"?>
<svg xmlns="http://www.w3.org/2000/svg" xmlns:xlink="http://www.w3.org/1999/xlink" width="168px" height="40px" viewBox="0 0 168 40" version="1.1">
<defs>
<clipPath id="clip1">
  <path d="M 157 21 L 166.855469 21 L 166.855469 40 L 157 40 Z M 157 21 "/>
</clipPath>
</defs>
<g id="surface1">
<path style=" stroke:none;fill-rule:nonzero;fill:rgb(87.843137%,87.058824%,85.098039%);fill-opacity:1;" d="M 138.316406 21.65625 C 136.503906 21.65625 134.734375 22.195312 133.230469 23.203125 C 131.722656 24.210938 130.550781 25.644531 129.859375 27.320312 C 129.164062 28.996094 128.984375 30.839844 129.335938 32.617188 C 129.691406 34.398438 130.5625 36.03125 131.84375 37.3125 C 133.125 38.597656 134.753906 39.46875 136.53125 39.824219 C 138.304688 40.175781 140.148438 39.996094 141.820312 39.300781 C 143.492188 38.605469 144.921875 37.429688 145.925781 35.921875 C 146.933594 34.410156 147.46875 32.636719 147.46875 30.824219 C 147.464844 28.394531 146.5 26.0625 144.78125 24.34375 C 143.066406 22.625 140.742188 21.660156 138.316406 21.65625 Z M 138.316406 37.34375 C 137.027344 37.34375 135.773438 36.964844 134.703125 36.246094 C 133.632812 35.53125 132.800781 34.515625 132.304688 33.324219 C 131.8125 32.132812 131.683594 30.824219 131.9375 29.558594 C 132.1875 28.292969 132.804688 27.132812 133.714844 26.222656 C 134.625 25.308594 135.78125 24.6875 137.042969 24.4375 C 138.304688 24.183594 139.613281 24.3125 140.800781 24.804688 C 141.988281 25.296875 143.007812 26.132812 143.722656 27.203125 C 144.4375 28.277344 144.820312 29.535156 144.820312 30.824219 C 144.816406 32.550781 144.132812 34.210938 142.914062 35.433594 C 141.695312 36.65625 140.039062 37.34375 138.316406 37.34375 Z M 138.316406 37.34375 "/>
<g clip-path="url(#clip1)" clip-rule="nonzero">
<path style=" stroke:none;fill-rule:nonzero;fill:rgb(87.843137%,87.058824%,85.098039%);fill-opacity:1;" d="M 157.703125 30.824219 L 157.703125 39.996094 L 160.351562 39.996094 L 160.351562 30.824219 C 160.355469 29.097656 161.039062 27.441406 162.261719 26.21875 C 163.480469 24.996094 165.132812 24.308594 166.855469 24.308594 L 166.855469 21.65625 C 164.429688 21.660156 162.105469 22.625 160.390625 24.34375 C 158.675781 26.0625 157.707031 28.394531 157.703125 30.824219 Z M 157.703125 30.824219 "/>
</g>
<path style=" stroke:none;fill-rule:nonzero;fill:rgb(87.843137%,87.058824%,85.098039%);fill-opacity:1;" d="M 116.722656 21.65625 C 114.296875 21.660156 111.972656 22.625 110.253906 24.34375 C 108.539062 26.0625 107.574219 28.394531 107.570312 30.824219 L 107.570312 39.996094 L 110.21875 39.996094 L 110.21875 30.824219 C 110.238281 29.109375 110.933594 27.472656 112.152344 26.269531 C 113.367188 25.0625 115.011719 24.386719 116.722656 24.386719 C 118.433594 24.386719 120.074219 25.0625 121.292969 26.269531 C 122.511719 27.472656 123.207031 29.109375 123.226562 30.824219 L 123.226562 39.996094 L 125.875 39.996094 L 125.875 30.824219 C 125.871094 28.394531 124.90625 26.0625 123.191406 24.34375 C 121.472656 22.625 119.148438 21.660156 116.722656 21.65625 Z M 116.722656 21.65625 "/>
<path style=" stroke:none;fill-rule:nonzero;fill:rgb(87.843137%,87.058824%,85.098039%);fill-opacity:1;" d="M 74.191406 21.65625 C 72.5625 21.65625 70.964844 22.09375 69.558594 22.917969 C 68.15625 23.746094 66.996094 24.933594 66.203125 26.359375 C 65.40625 27.78125 65.007812 29.394531 65.042969 31.027344 C 65.078125 32.65625 65.546875 34.25 66.402344 35.640625 C 67.257812 37.03125 68.464844 38.164062 69.902344 38.929688 C 71.34375 39.695312 72.960938 40.0625 74.585938 39.992188 C 76.214844 39.921875 77.792969 39.417969 79.160156 38.53125 C 80.53125 37.644531 81.636719 36.410156 82.371094 34.949219 L 79.226562 34.949219 C 78.441406 35.917969 77.394531 36.636719 76.210938 37.023438 C 75.03125 37.410156 73.761719 37.449219 72.558594 37.136719 C 71.355469 36.824219 70.269531 36.171875 69.421875 35.261719 C 68.578125 34.347656 68.011719 33.210938 67.792969 31.984375 L 83.273438 31.984375 C 83.433594 30.691406 83.320312 29.378906 82.9375 28.136719 C 82.558594 26.890625 81.914062 25.742188 81.054688 24.765625 C 80.195312 23.789062 79.140625 23.007812 77.957031 22.472656 C 76.769531 21.933594 75.488281 21.65625 74.1875 21.65625 Z M 74.191406 24.3125 C 75.65625 24.3125 77.078125 24.808594 78.226562 25.71875 C 79.375 26.628906 80.183594 27.902344 80.519531 29.328125 L 67.863281 29.328125 C 68.203125 27.902344 69.011719 26.628906 70.160156 25.71875 C 71.308594 24.808594 72.726562 24.3125 74.191406 24.3125 Z M 74.191406 24.3125 "/>
<path style=" stroke:none;fill-rule:nonzero;fill:rgb(87.843137%,87.058824%,85.098039%);fill-opacity:1;" d="M 153.480469 24.234375 L 150.832031 24.234375 L 150.832031 40 L 153.480469 40 Z M 153.480469 24.234375 "/>
<path style=" stroke:none;fill-rule:nonzero;fill:rgb(87.843137%,87.058824%,85.098039%);fill-opacity:1;" d="M 153.480469 17.695312 L 150.832031 17.695312 L 150.832031 20.394531 L 153.480469 20.394531 Z M 153.480469 17.695312 "/>
<path style=" stroke:none;fill-rule:nonzero;fill:rgb(87.843137%,87.058824%,85.098039%);fill-opacity:1;" d="M 66.414062 17.695312 L 46.699219 17.695312 L 46.699219 20.351562 L 55.234375 20.351562 L 55.234375 40 L 57.882812 40 L 57.882812 20.351562 L 66.414062 20.351562 Z M 66.414062 17.695312 "/>
<path style=" stroke:none;fill-rule:nonzero;fill:rgb(87.843137%,87.058824%,85.098039%);fill-opacity:1;" d="M 100.636719 21.65625 L 89.484375 31.917969 L 89.484375 17.695312 L 86.835938 17.695312 L 86.835938 40 L 89.484375 40 L 89.484375 35.519531 L 94.238281 31.148438 L 100.675781 40 L 103.953125 40 L 96.199219 29.339844 L 104.554688 21.65625 Z M 100.636719 21.65625 "/>
<path style=" stroke:none;fill-rule:nonzero;fill:rgb(87.843137%,67.843137%,10.588235%);fill-opacity:1;" d="M 20.199219 0 L 10.667969 8.726562 L 0 8.726562 L 0 14.132812 L 10.980469 14.132812 C 11.527344 14.148438 12.074219 14.050781 12.585938 13.851562 C 13.09375 13.652344 13.5625 13.355469 13.957031 12.972656 L 27.988281 0 Z M 20.199219 0 "/>
<path style=" stroke:none;fill-rule:nonzero;fill:rgb(92.941176%,42.745098%,21.176471%);fill-opacity:1;" d="M 32.082031 0 L 15.835938 15.019531 C 14.503906 16.242188 13.238281 16.914062 10.980469 16.914062 L 0 16.914062 L 0 22.304688 L 12.035156 22.304688 C 14.398438 22.304688 16.675781 21.421875 18.417969 19.824219 L 40.066406 -0.00390625 Z M 32.082031 0 "/>
<path style=" stroke:none;fill-rule:nonzero;fill:rgb(23.137255%,38.039216%,74.901961%);fill-opacity:1;" d="M 19.871094 40 L 29.402344 31.273438 L 40.066406 31.273438 L 40.066406 25.867188 L 29.085938 25.867188 C 28.539062 25.855469 27.992188 25.949219 27.484375 26.148438 C 26.972656 26.347656 26.507812 26.648438 26.109375 27.027344 L 12.078125 40 Z M 19.871094 40 "/>
<path style=" stroke:none;fill-rule:nonzero;fill:rgb(60.784314%,20.784314%,49.019608%);fill-opacity:1;" d="M 7.984375 40 L 24.230469 24.980469 C 25.5625 23.757812 26.828125 23.085938 29.085938 23.085938 L 40.066406 23.085938 L 40.066406 17.695312 L 28.03125 17.695312 C 25.667969 17.695312 23.390625 18.578125 21.648438 20.179688 L 0 40 Z M 7.984375 40 "/>
</g>
</svg>
